<?xml version="1.0" encoding="UTF-8"?>
<svg id="_레이어_2" data-name="레이어 2" xmlns="http://www.w3.org/2000/svg" viewBox="0 0 2563.51 1275.59">
  <defs>
    <style>
      .cls-1 {
        fill: #ff643c;
        stroke-width: 0px;
      }
    </style>
  </defs>
  <g id="_레이어_1-2" data-name="레이어 1">
    <g>
      <polygon class="cls-1" points="2393.44 85.04 2354.19 340.16 2184.11 340.16 2157.94 510.24 2328.02 510.24 2223.36 1190.55 2393.44 1190.55 2563.51 85.04 2393.44 85.04"/>
      <polygon class="cls-1" points="1861.39 595.28 1913.73 255.12 2282.23 255.12 2308.4 85.04 1769.81 85.04 1743.65 255.12 1691.32 595.28 1665.15 765.35 2203.73 765.35 2229.9 595.28 1861.39 595.28"/>
      <path class="cls-1" d="M1325.74,760.47c155.7-37.9,287.5-173.63,312.37-335.28,29.38-191-101.63-345.83-292.62-345.83s-369.65,154.83-399.03,345.83c-24.87,161.65,65.16,297.39,209.2,335.29l-13.83,89.91h-255.12l-26.17,170.08h1020.47l26.17-170.08h-595.28l13.83-89.92ZM1122.21,425.2c14.45-93.93,102.31-170.08,196.24-170.08s158.36,76.15,143.91,170.08c-14.45,93.93-102.31,170.08-196.24,170.08s-158.36-76.15-143.91-170.08Z"/>
      <polygon class="cls-1" points="749.34 85.04 644.68 765.35 814.76 765.35 919.42 85.04 749.34 85.04"/>
      <polygon class="cls-1" points="36.32 850.39 10.15 1020.47 605.43 1020.47 566.18 1275.59 736.26 1275.59 775.51 1020.47 775.51 1020.47 801.67 850.39 631.59 850.39 36.32 850.39"/>
      <path class="cls-1" d="M260.26,776.69c167.51,0,324.2-135.8,349.97-303.31,13.19-85.71-10.47-163.11-59.15-218.27h87.06l26.17-170.08h-204.09L473.29,0h-170.08l-13.08,85.04H69.03l-26.17,170.08h87.06C64.27,310.28,16.8,387.67,3.61,473.39c-25.77,167.51,89.13,303.31,256.64,303.31ZM434.48,473.39c-10.84,70.45-76.73,127.56-147.18,127.56s-118.77-57.11-107.93-127.56c10.84-70.45,76.73-127.56,147.18-127.56s118.77,57.11,107.93,127.56Z"/>
    </g>
  </g>
</svg>